<svg width="448" height="361" viewBox="0 0 448 361" fill="none" xmlns="http://www.w3.org/2000/svg">
<path fill-rule="evenodd" clip-rule="evenodd" d="M272.426 205L174 0L0.794922 360.75H45.6546L72.9636 314.25H72.675L174 105L222.423 205H272.426ZM284.909 231H235.013L275.325 314.25H111.128L85.0427 360.75H347.205L284.909 231Z" fill="#141414"/>
<path d="M201.94 4H345.5C481.354 4 481.553 205.5 345.5 205.5H185L201.94 160.5H358C406.163 160.5 403.506 54.5075 358 54.5075C247.396 54.5075 225.567 52.1277 226.547 58.0269L227.5 60.1194C226.989 59.3267 226.648 58.6331 226.547 58.0269L201.94 4Z" fill="#6B7474"/>
<path d="M308 229H363L425.5 361H370.5L308 229Z" fill="#6B7474"/>
</svg>
