<svg width="526" height="533" viewBox="0 0 526 533" fill="none" xmlns="http://www.w3.org/2000/svg">
<path fill-rule="evenodd" clip-rule="evenodd" d="M332.426 205L234 0L60.7949 360.75H105.655L132.964 314.25H132.675L234 105L282.423 205H332.426ZM344.909 231H295.013L335.325 314.25H171.128L145.043 360.75H407.205L344.909 231Z" fill="#141414"/>
<path d="M12.528 483H5.328C4.08 483 3.648 482.328 4.032 480.984L30.96 392.424C31.344 391.08 32.256 390.408 33.696 390.408H44.064C45.504 390.408 46.416 391.08 46.8 392.424L73.728 480.984C74.112 482.328 73.68 483 72.432 483H65.088C64.032 483 63.36 482.328 63.072 480.984L56.304 459.96H21.456L14.688 480.984C14.304 482.328 13.584 483 12.528 483ZM38.592 401.208L23.76 451.032H54L39.168 401.208H38.592ZM97.6376 483H91.1576C89.8136 483 89.1416 482.328 89.1416 480.984V392.424C89.1416 391.08 89.8136 390.408 91.1576 390.408H124.278C130.902 390.408 136.134 392.328 139.974 396.168C143.814 399.912 145.734 405.096 145.734 411.72V424.824C145.734 430.2 144.438 434.664 141.846 438.216C139.254 441.672 135.654 443.976 131.046 445.128V445.704L147.75 480.696C148.614 482.232 148.134 483 146.31 483H139.83C138.198 483 136.998 482.328 136.23 480.984L120.102 446.136H101.094C100.134 446.136 99.6536 446.568 99.6536 447.432V480.984C99.6536 482.328 98.9816 483 97.6376 483ZM101.094 437.352H122.838C131.094 437.352 135.222 433.224 135.222 424.968V412.152C135.222 403.8 131.094 399.624 122.838 399.624H101.094C100.134 399.624 99.6536 400.056 99.6536 400.92V436.056C99.6536 436.92 100.134 437.352 101.094 437.352ZM187.509 473.784H202.197C210.261 473.784 214.293 469.608 214.293 461.256V412.152C214.293 403.8 210.261 399.624 202.197 399.624H187.509C179.541 399.624 175.557 403.8 175.557 412.152V461.256C175.557 469.608 179.541 473.784 187.509 473.784ZM203.493 483H186.357C179.733 483 174.501 481.128 170.661 477.384C166.917 473.64 165.045 468.408 165.045 461.688V411.72C165.045 405 166.917 399.768 170.661 396.024C174.501 392.28 179.733 390.408 186.357 390.408H203.493C210.117 390.408 215.301 392.328 219.045 396.168C222.885 399.912 224.805 405.096 224.805 411.72V461.688C224.805 468.312 222.885 473.544 219.045 477.384C215.301 481.128 210.117 483 203.493 483Z" fill="#6B7474"/>
<path d="M268.687 483H262.207C260.863 483 260.191 482.328 260.191 480.984V400.92C260.191 400.056 259.711 399.624 258.751 399.624H239.167C237.727 399.624 237.007 398.952 237.007 397.608V392.424C237.007 391.08 237.727 390.408 239.167 390.408H291.727C293.167 390.408 293.887 391.08 293.887 392.424V397.608C293.887 398.952 293.167 399.624 291.727 399.624H272.143C271.183 399.624 270.703 400.056 270.703 400.92V480.984C270.703 482.328 270.031 483 268.687 483ZM354.764 483H309.548C308.204 483 307.532 482.328 307.532 480.984V392.424C307.532 391.08 308.204 390.408 309.548 390.408H354.764C356.108 390.408 356.78 391.08 356.78 392.424V397.608C356.78 398.952 356.108 399.624 354.764 399.624H319.484C318.524 399.624 318.044 400.056 318.044 400.92V430.008C318.044 430.872 318.524 431.304 319.484 431.304H350.3C351.644 431.304 352.316 431.976 352.316 433.32V438.504C352.316 439.848 351.644 440.52 350.3 440.52H319.484C318.524 440.52 318.044 440.952 318.044 441.816V472.488C318.044 473.352 318.524 473.784 319.484 473.784H354.764C356.108 473.784 356.78 474.456 356.78 475.8V480.984C356.78 482.328 356.108 483 354.764 483ZM413.872 483H396.592C389.968 483 384.736 481.128 380.896 477.384C377.152 473.64 375.28 468.408 375.28 461.688V411.72C375.28 405 377.152 399.768 380.896 396.024C384.736 392.28 389.968 390.408 396.592 390.408H413.872C420.496 390.408 425.68 392.28 429.424 396.024C433.264 399.768 435.184 405 435.184 411.72V418.776C435.184 420.12 434.512 420.792 433.168 420.792H426.688C425.344 420.792 424.672 420.12 424.672 418.776V412.152C424.672 403.8 420.64 399.624 412.576 399.624H397.744C389.776 399.624 385.792 403.8 385.792 412.152V461.256C385.792 469.608 389.776 473.784 397.744 473.784H412.576C420.64 473.784 424.672 469.608 424.672 461.256V454.632C424.672 453.288 425.344 452.616 426.688 452.616H433.168C434.512 452.616 435.184 453.288 435.184 454.632V461.688C435.184 468.408 433.264 473.64 429.424 477.384C425.68 481.128 420.496 483 413.872 483ZM463.122 483H456.642C455.298 483 454.626 482.328 454.626 480.984V392.424C454.626 391.08 455.298 390.408 456.642 390.408H463.122C464.466 390.408 465.138 391.08 465.138 392.424V430.296C465.138 431.16 465.618 431.592 466.578 431.592H502.29C503.25 431.592 503.73 431.16 503.73 430.296V392.424C503.73 391.08 504.402 390.408 505.746 390.408H512.226C513.57 390.408 514.242 391.08 514.242 392.424V480.984C514.242 482.328 513.57 483 512.226 483H505.746C504.402 483 503.73 482.328 503.73 480.984V442.104C503.73 441.24 503.25 440.808 502.29 440.808H466.578C465.618 440.808 465.138 441.24 465.138 442.104V480.984C465.138 482.328 464.466 483 463.122 483Z" fill="black"/>
<path d="M261.94 4H405.5C541.354 4 541.553 205.5 405.5 205.5H245L261.94 160.5H418C466.163 160.5 463.506 54.5075 418 54.5075C307.396 54.5075 285.567 52.1277 286.547 58.0269L287.5 60.1194C286.989 59.3267 286.648 58.6331 286.547 58.0269L261.94 4Z" fill="#6B7474"/>
<path d="M368 229H423L485.5 361H430.5L368 229Z" fill="#6B7474"/>
</svg>
