<svg width="999" height="361" viewBox="0 0 999 361" fill="none" xmlns="http://www.w3.org/2000/svg">
<path fill-rule="evenodd" clip-rule="evenodd" d="M272.426 205L174 0L0.794922 360.75H45.6546L72.9636 314.25H72.675L174 105L222.423 205H272.426ZM284.909 231H235.013L275.325 314.25H111.128L85.0427 360.75H347.205L284.909 231Z" fill="#181B2B"/>
<path d="M485.528 222H478.328C477.08 222 476.648 221.328 477.032 219.984L503.96 131.424C504.344 130.08 505.256 129.408 506.696 129.408H517.064C518.504 129.408 519.416 130.08 519.8 131.424L546.728 219.984C547.112 221.328 546.68 222 545.432 222H538.088C537.032 222 536.36 221.328 536.072 219.984L529.304 198.96H494.456L487.688 219.984C487.304 221.328 486.584 222 485.528 222ZM511.592 140.208L496.76 190.032H527L512.168 140.208H511.592ZM570.638 222H564.158C562.814 222 562.142 221.328 562.142 219.984V131.424C562.142 130.08 562.814 129.408 564.158 129.408H597.278C603.902 129.408 609.134 131.328 612.974 135.168C616.814 138.912 618.734 144.096 618.734 150.72V163.824C618.734 169.2 617.438 173.664 614.846 177.216C612.254 180.672 608.654 182.976 604.046 184.128V184.704L620.75 219.696C621.614 221.232 621.134 222 619.31 222H612.83C611.198 222 609.998 221.328 609.23 219.984L593.102 185.136H574.094C573.134 185.136 572.654 185.568 572.654 186.432V219.984C572.654 221.328 571.982 222 570.638 222ZM574.094 176.352H595.838C604.094 176.352 608.222 172.224 608.222 163.968V151.152C608.222 142.8 604.094 138.624 595.838 138.624H574.094C573.134 138.624 572.654 139.056 572.654 139.92V175.056C572.654 175.92 573.134 176.352 574.094 176.352ZM660.509 212.784H675.197C683.261 212.784 687.293 208.608 687.293 200.256V151.152C687.293 142.8 683.261 138.624 675.197 138.624H660.509C652.541 138.624 648.557 142.8 648.557 151.152V200.256C648.557 208.608 652.541 212.784 660.509 212.784ZM676.493 222H659.357C652.733 222 647.501 220.128 643.661 216.384C639.917 212.64 638.045 207.408 638.045 200.688V150.72C638.045 144 639.917 138.768 643.661 135.024C647.501 131.28 652.733 129.408 659.357 129.408H676.493C683.117 129.408 688.301 131.328 692.045 135.168C695.885 138.912 697.805 144.096 697.805 150.72V200.688C697.805 207.312 695.885 212.544 692.045 216.384C688.301 220.128 683.117 222 676.493 222Z" fill="#6B7474"/>
<path d="M741.687 222H735.207C733.863 222 733.191 221.328 733.191 219.984V139.92C733.191 139.056 732.711 138.624 731.751 138.624H712.167C710.727 138.624 710.007 137.952 710.007 136.608V131.424C710.007 130.08 710.727 129.408 712.167 129.408H764.727C766.167 129.408 766.887 130.08 766.887 131.424V136.608C766.887 137.952 766.167 138.624 764.727 138.624H745.143C744.183 138.624 743.703 139.056 743.703 139.92V219.984C743.703 221.328 743.031 222 741.687 222ZM827.764 222H782.548C781.204 222 780.532 221.328 780.532 219.984V131.424C780.532 130.08 781.204 129.408 782.548 129.408H827.764C829.108 129.408 829.78 130.08 829.78 131.424V136.608C829.78 137.952 829.108 138.624 827.764 138.624H792.484C791.524 138.624 791.044 139.056 791.044 139.92V169.008C791.044 169.872 791.524 170.304 792.484 170.304H823.3C824.644 170.304 825.316 170.976 825.316 172.32V177.504C825.316 178.848 824.644 179.52 823.3 179.52H792.484C791.524 179.52 791.044 179.952 791.044 180.816V211.488C791.044 212.352 791.524 212.784 792.484 212.784H827.764C829.108 212.784 829.78 213.456 829.78 214.8V219.984C829.78 221.328 829.108 222 827.764 222ZM886.872 222H869.592C862.968 222 857.736 220.128 853.896 216.384C850.152 212.64 848.28 207.408 848.28 200.688V150.72C848.28 144 850.152 138.768 853.896 135.024C857.736 131.28 862.968 129.408 869.592 129.408H886.872C893.496 129.408 898.68 131.28 902.424 135.024C906.264 138.768 908.184 144 908.184 150.72V157.776C908.184 159.12 907.512 159.792 906.168 159.792H899.688C898.344 159.792 897.672 159.12 897.672 157.776V151.152C897.672 142.8 893.64 138.624 885.576 138.624H870.744C862.776 138.624 858.792 142.8 858.792 151.152V200.256C858.792 208.608 862.776 212.784 870.744 212.784H885.576C893.64 212.784 897.672 208.608 897.672 200.256V193.632C897.672 192.288 898.344 191.616 899.688 191.616H906.168C907.512 191.616 908.184 192.288 908.184 193.632V200.688C908.184 207.408 906.264 212.64 902.424 216.384C898.68 220.128 893.496 222 886.872 222ZM936.122 222H929.642C928.298 222 927.626 221.328 927.626 219.984V131.424C927.626 130.08 928.298 129.408 929.642 129.408H936.122C937.466 129.408 938.138 130.08 938.138 131.424V169.296C938.138 170.16 938.618 170.592 939.578 170.592H975.29C976.25 170.592 976.73 170.16 976.73 169.296V131.424C976.73 130.08 977.402 129.408 978.746 129.408H985.226C986.57 129.408 987.242 130.08 987.242 131.424V219.984C987.242 221.328 986.57 222 985.226 222H978.746C977.402 222 976.73 221.328 976.73 219.984V181.104C976.73 180.24 976.25 179.808 975.29 179.808H939.578C938.618 179.808 938.138 180.24 938.138 181.104V219.984C938.138 221.328 937.466 222 936.122 222Z" fill="#181B2B"/>
<path d="M201.94 4H345.5C481.354 4 481.553 205.5 345.5 205.5H185L201.94 160.5H358C406.163 160.5 403.506 54.5075 358 54.5075C247.396 54.5075 225.567 52.1277 226.547 58.0269L227.5 60.1194C226.989 59.3267 226.648 58.6331 226.547 58.0269L201.94 4Z" fill="#6B7474"/>
<path d="M308 229H363L425.5 361H370.5L308 229Z" fill="#6B7474"/>
</svg>
